<?xml version="1.0" standalone="no"?>
<!DOCTYPE svg PUBLIC "-//W3C//DTD SVG 20010904//EN"
 "http://www.w3.org/TR/2001/REC-SVG-20010904/DTD/svg10.dtd">
<svg version="1.0" xmlns="http://www.w3.org/2000/svg"
 width="500.000000pt" height="500.000000pt" viewBox="0 0 500.000000 500.000000"
 preserveAspectRatio="xMidYMid meet">
<metadata>
Created by potrace 1.14, written by Peter Selinger 2001-2017
</metadata>
<g transform="translate(0.000000,500.000000) scale(0.100000,-0.100000)"
fill="#000000" stroke="none">
<path d="M2340 4667 c-3 -3 -38 -7 -79 -11 -216 -18 -486 -98 -716 -211 -260
-128 -446 -267 -650 -486 -220 -236 -408 -580 -491 -896 -24 -91 -41 -177 -49
-241 -4 -26 -9 -58 -12 -72 -9 -44 -12 -403 -3 -465 5 -33 11 -82 15 -109 17
-135 74 -346 132 -486 140 -343 358 -638 643 -871 36 -30 67 -56 70 -59 3 -3
13 -9 22 -15 9 -5 48 -31 86 -57 172 -118 459 -245 662 -293 216 -51 347 -65
580 -60 201 4 209 5 385 40 222 44 462 135 642 241 106 64 137 84 218 145 382
286 652 673 785 1123 32 109 58 224 66 296 3 25 9 72 14 105 9 63 6 432 -4
475 -3 14 -8 43 -11 65 -35 279 -168 624 -337 875 -145 214 -369 447 -548 566
-19 13 -54 37 -78 54 -23 16 -44 30 -46 30 -2 0 -41 22 -87 48 -210 120 -472
209 -729 248 -25 3 -56 9 -70 11 -34 6 -405 15 -410 10z"/>
</g>
</svg>
